# xmcd
# 
# Track frame offsets:
#	150
#	13992
#	29092
#	45967
#	58305
#	73005
#	93320
#	109710
#	125825
#	139482
#	151600
#	171130
#
# Disc length: 2467 seconds
#
# Revision: 1
# Processed by: cddbd v1.4PL0 Copyright (c) Steve Scherf et al.
# Submitted via: Audio-CD-Archiv 2.10.435
#
DISCID=aa09a10c
DTITLE=Rubber Duck - Da brennt der Asphalt
DYEAR=1900
DGENRE=country
TTITLE0=Pfui teufel ist es in der hölle schön
TTITLE1=18 räder um die welt
TTITLE2=Ich nehm den längsten weg nach hause
TTITLE3=Das hast du nun davon
TTITLE4=Du hast es immer so gewollt
TTITLE5=Mein mofa
TTITLE6=Ich sehne mich nach dir
TTITLE7=Der alte wolf
TTITLE8=Blaue augen
TTITLE9=Fiddle
TTITLE10=Der schlüssel
TTITLE11=Nur für eine nacht
EXTD=
EXTT0=
EXTT1=
EXTT2=
EXTT3=
EXTT4=
EXTT5=
EXTT6=
EXTT7=
EXTT8=
EXTT9=
EXTT10=
EXTT11=
PLAYORDER=
